<?xml version="1.0" standalone="no"?><!DOCTYPE svg PUBLIC "-//W3C//DTD SVG 1.1//EN" "http://www.w3.org/Graphics/SVG/1.1/DTD/svg11.dtd"><svg t="1633009023186" class="icon" viewBox="0 0 1024 1024" version="1.1" xmlns="http://www.w3.org/2000/svg" p-id="4025" xmlns:xlink="http://www.w3.org/1999/xlink" width="16" height="16"><defs><style type="text/css"></style></defs><path d="M896 432H606.506667l117.12-120.32c-116.48-115.413333-305.066667-119.68-421.546667-4.266667a293.333333 293.333333 0 0 0 0 417.706667c116.48 115.413333 305.066667 115.413333 421.546667 0 58.026667-57.6 87.04-124.373333 86.826666-208.853333H896c0 84.48-37.546667 194.133333-112.64 268.586666-149.76 148.266667-392.96 148.266667-542.72 0s-150.826667-388.693333-1.066667-536.96c149.546667-148.266667 390.186667-148.266667 539.733334 0L896 128v304zM533.333333 341.333333v181.333334l149.333334 88.746666-30.72 51.626667L469.333333 554.666667V341.333333h64z" p-id="4026" fill="#bfbfbf"></path></svg>